HIERARCHY
ROOT Hips
{
	OFFSET 56.877701 -32.693596 43.373703
	CHANNELS 6 Xposition Yposition Zposition Zrotation Xrotation Yrotation
	JOINT Chest
	{
		OFFSET -0.779999 1.005800 5.403099
		CHANNELS 6 Xposition Yposition Zposition Zrotation Xrotation Yrotation
		JOINT Chest2
		{
			OFFSET 0.000000 0.000000 4.236801
			CHANNELS 6 Xposition Yposition Zposition Zrotation Xrotation Yrotation
			JOINT Neck
			{
				OFFSET 0.000000 0.000000 9.874401
				CHANNELS 6 Xposition Yposition Zposition Zrotation Xrotation Yrotation
				JOINT Head
				{
					OFFSET 0.000000 0.000002 2.173893
					CHANNELS 6 Xposition Yposition Zposition Zrotation Xrotation Yrotation
					End Site
					{
						OFFSET 0.000000 0.000000 6.508102
					}
				}
			}
			JOINT LeftCollar
			{
				OFFSET 2.681599 -0.377600 5.432499
				CHANNELS 6 Xposition Yposition Zposition Zrotation Xrotation Yrotation
				JOINT LeftShoulder
				{
					OFFSET 5.161499 0.000000 0.000000
					CHANNELS 6 Xposition Yposition Zposition Zrotation Xrotation Yrotation
					JOINT LeftElbow
					{
						OFFSET 0.000000 0.000000 -10.869099
						CHANNELS 6 Xposition Yposition Zposition Zrotation Xrotation Yrotation
						JOINT LeftWrist
						{
							OFFSET 0.000000 0.000000 -13.344799
							CHANNELS 6 Xposition Yposition Zposition Zrotation Xrotation Yrotation
							End Site
							{
								OFFSET 0.000000 0.000000 -2.173901
							}
						}
					}
				}
			}
			JOINT RightCollar
			{
				OFFSET -2.381901 -1.419600 6.136600
				CHANNELS 6 Xposition Yposition Zposition Zrotation Xrotation Yrotation
				JOINT RightShoulder
				{
					OFFSET -4.550499 0.000000 0.000000
					CHANNELS 6 Xposition Yposition Zposition Zrotation Xrotation Yrotation
					JOINT RightElbow
					{
						OFFSET 0.000000 0.000000 -11.106499
						CHANNELS 6 Xposition Yposition Zposition Zrotation Xrotation Yrotation
						JOINT RightWrist
						{
							OFFSET 0.000000 0.000000 -12.874298
							CHANNELS 6 Xposition Yposition Zposition Zrotation Xrotation Yrotation
							End Site
							{
								OFFSET 0.000000 0.000000 -2.173901
							}
						}
					}
				}
			}
		}
	}
	JOINT LeftHip
	{
		OFFSET 2.431900 0.469601 -2.489399
		CHANNELS 6 Xposition Yposition Zposition Zrotation Xrotation Yrotation
		JOINT LeftKnee
		{
			OFFSET 0.000000 -0.000004 -18.200201
			CHANNELS 6 Xposition Yposition Zposition Zrotation Xrotation Yrotation
			JOINT LeftAnkle
			{
				OFFSET 0.000000 0.000000 -16.279900
				CHANNELS 6 Xposition Yposition Zposition Zrotation Xrotation Yrotation
				End Site
				{
					OFFSET 0.000000 -8.394100 0.000000
				}
			}
		}
	}
	JOINT RightHip
	{
		OFFSET -1.987999 -0.073502 -2.713001
		CHANNELS 6 Xposition Yposition Zposition Zrotation Xrotation Yrotation
		JOINT RightKnee
		{
			OFFSET 0.000000 -0.000004 -19.547802
			CHANNELS 6 Xposition Yposition Zposition Zrotation Xrotation Yrotation
			JOINT RightAnkle
			{
				OFFSET 0.000000 0.000000 -14.881199
				CHANNELS 6 Xposition Yposition Zposition Zrotation Xrotation Yrotation
				End Site
				{
					OFFSET 0.000000 -7.922699 0.000000
				}
			}
		}
	}
}
MOTION
Frames: 10
Frame Time: 0.041667
52.278999 -40.860397 44.466801 1788.336628 -7.451381 15.819965 -0.779993 1.005798 5.403093 14.801974 6.105287 -25.085241 0.000003 -0.000002 4.236805 -8.998384 -0.263441 -0.103578 0.000005 0.000003 9.874395 9.730190 5.037361 3.402560 -0.000003 0.000004 2.173879 -0.877007 -0.729783 1.843807 2.681612 -0.377598 5.432490 10.763990 -3.818055 -6.321589 5.161505 -0.000004 -0.000002 179.167910 -162.181298 94.365518 0.000003 0.000004 -10.869099 -6.104701 1.299698 -2.707520 -0.000001 -0.000003 -13.344820 -7.445389 -12.704278 20.124621 -2.381899 -1.419598 6.136590 9.417784 -11.296036 20.041233 -4.550501 -0.000002 -0.000003 -898.890324 -520.613630 -449.575182 0.000006 0.000007 -11.106506 -7.714098 -8.692379 -0.958957 0.000004 0.000006 -12.874298 -668.372423 4.844046 -2.143534 2.431909 0.469600 -2.489402 8.630938 -0.816344 -11.972557 -0.000004 -0.000004 -18.200191 7.410727 26.143959 2.556896 0.000008 -0.000006 -16.279894 -1.366567 31.089529 -22.307703 -1.987991 -0.073506 -2.712999 -144.238965 -19.264786 -61.347420 -0.000010 -0.000001 -19.547802 -1250.159139 156.332443 550.050324 -0.000008 0.000004 -14.881196 609.905458 94.514812 181.649933
52.186798 -40.891994 44.449703 1788.858126 -7.160657 16.151593 -0.779995 1.005805 5.403108 14.269729 5.926783 -25.455907 0.000004 0.000001 4.236789 -8.704406 -0.167503 -0.048407 0.000004 -0.000001 9.874411 9.308429 5.166629 3.006835 -0.000004 0.000003 2.173895 -0.984138 -0.750894 1.703219 2.681597 -0.377596 5.432502 10.450853 -3.905973 -5.746932 5.161504 -0.000001 -0.000006 180.509892 -151.879734 96.652081 0.000000 0.000001 -10.869097 1.056388 0.189090 -2.726927 0.000007 0.000004 -13.344810 -15.346387 -14.619161 19.407170 -2.381898 -1.419598 6.136604 9.856307 -10.983834 17.824973 -4.550503 -0.000004 -0.000000 -901.340122 -518.000946 -452.018750 -0.000002 0.000003 -11.106501 -13.600144 -9.985538 -1.732030 0.000002 -0.000001 -12.874296 -659.145056 5.064111 -0.689275 2.431900 0.469604 -2.489387 9.041131 -1.685843 -12.258002 -0.000004 -0.000004 -18.200195 5.978677 27.126866 2.539279 0.000006 0.000001 -16.279896 -0.963982 30.626548 -22.466533 -1.988001 -0.073502 -2.713002 -141.274936 -20.019874 -56.131055 -0.000002 -0.000009 -19.547802 -1250.709707 155.969268 551.004693 -0.000007 0.000005 -14.881198 609.332268 94.524928 182.359357
52.170101 -40.895901 44.447399 1788.899217 -7.021616 16.105904 -0.780000 1.005803 5.403094 14.156851 5.774717 -25.254102 0.000002 -0.000001 4.236808 -8.565170 -0.140767 -0.038293 -0.000003 0.000000 9.874398 9.116527 5.240945 2.843148 -0.000001 0.000002 2.173893 -0.973422 -0.768586 1.663043 2.681591 -0.377598 5.432498 10.256084 -3.858764 -5.805151 5.161495 -0.000002 0.000009 180.926875 -150.521373 97.200770 -0.000007 0.000001 -10.869105 2.125928 0.001379 -2.702709 0.000006 -0.000003 -13.344804 -16.078219 -14.793240 19.233275 -2.381910 -1.419594 6.136594 9.753341 -10.921437 17.706635 -4.550503 -0.000005 0.000002 -901.822989 -517.733858 -452.833209 -0.000000 0.000000 -11.106500 -14.190248 -10.153742 -1.821540 0.000005 0.000001 -12.874297 -658.141237 5.089193 -0.519150 2.431902 0.469599 -2.489399 9.117706 -1.911177 -12.200580 0.000000 -0.000004 -18.200195 5.763936 27.282151 2.536300 0.000002 -0.000008 -16.279903 -0.914005 30.556897 -22.467624 -1.987999 -0.073502 -2.713003 -140.704287 -20.189508 -55.423577 -0.000004 -0.000006 -19.547806 -1250.856147 155.907701 551.197304 -0.000004 0.000007 -14.881194 609.539851 94.537365 182.072899
52.147999 -40.901001 44.444603 1788.940307 -6.821759 16.021098 -0.779999 1.005797 5.403092 14.008201 5.551540 -24.930151 0.000002 0.000003 4.236796 -8.365534 -0.105906 -0.025580 0.000002 -0.000000 9.874402 8.847188 5.348729 2.605260 0.000006 -0.000002 2.173886 -0.958598 -0.757274 1.612025 2.681596 -0.377597 5.432505 9.976214 -3.783372 -5.920145 5.161510 -0.000003 0.000000 181.524681 -148.944597 97.942078 -0.000001 0.000004 -10.869102 3.522735 -0.253824 -2.648407 0.000007 -0.000007 -13.344817 -17.678297 -15.246106 19.046853 -2.381901 -1.419599 6.136592 9.596108 -10.830241 17.519365 -4.550507 0.000002 0.000005 -902.446285 -517.419013 -453.874239 0.000003 0.000003 -11.106503 -14.888359 -10.370012 -1.930270 0.000005 0.000001 -12.874299 -656.931583 5.119311 -0.309536 2.431903 0.469596 -2.489398 9.214220 -2.215137 -12.098704 0.000009 -0.000010 -18.200197 5.495796 27.477127 2.532924 0.000002 0.000005 -16.279902 -0.848901 30.469511 -22.467243 -1.987999 -0.073505 -2.713004 -139.943978 -20.423075 -54.556375 -0.000003 -0.000004 -19.547806 -1251.062145 155.826381 551.442317 -0.000005 0.000001 -14.881190 609.257518 94.537727 182.368674
52.119698 -40.907295 44.441200 1788.978666 -6.562081 15.894315 -0.779993 1.005806 5.403095 13.827500 5.258655 -24.481167 0.000004 -0.000001 4.236800 -8.106809 -0.064732 -0.010737 0.000000 -0.000000 9.874403 8.499799 5.492244 2.293743 -0.000004 -0.000004 2.173894 -0.931859 -0.803655 1.546791 2.681600 -0.377595 5.432508 9.612443 -3.678494 -6.089837 5.161497 0.000003 0.000002 182.349535 -147.117248 98.920161 0.000007 0.000012 -10.869106 5.407573 -0.592777 -2.554363 0.000003 -0.000002 -13.344810 -19.810156 -15.799148 18.814986 -2.381905 -1.419597 6.136595 9.383258 -10.712379 17.261357 -4.550498 0.000002 -0.000002 -903.209026 -517.050402 -455.147714 0.000001 -0.000008 -11.106502 -15.662875 -10.664313 -2.021581 0.000000 0.000003 -12.874295 -655.527952 5.133027 -0.111210 2.431903 0.469604 -2.489395 9.332432 -2.596112 -11.949783 0.000001 -0.000005 -18.200195 5.173853 27.711766 2.529710 -0.000000 -0.000003 -16.279896 -0.765731 30.364497 -22.466306 -1.987994 -0.073497 -2.713003 -138.945473 -20.742142 -53.510045 -0.000003 -0.000004 -19.547802 -1251.342893 155.722439 551.737490 -0.000012 0.000005 -14.881192 609.016823 94.563716 182.531710
52.084602 -40.914902 44.437103 1789.011232 -6.242450 15.721989 -0.779999 1.005796 5.403097 13.619154 4.896810 -23.903664 -0.000002 -0.000005 4.236804 -7.533425 -0.096984 0.182660 -0.000001 0.000000 9.874411 7.837073 5.726997 1.722578 0.000004 0.000003 2.173885 -0.902298 -0.774443 1.466459 2.681591 -0.377600 5.432498 8.898193 -3.492778 -6.498135 5.161501 -0.000005 0.000006 183.457679 -145.079502 100.181417 0.000013 0.000000 -10.869101 7.745730 -1.008184 -2.412572 -0.000011 -0.000000 -13.344803 -22.833240 -16.674502 18.019829 -2.381904 -1.419609 6.136602 9.000707 -10.453460 15.568204 -4.550507 -0.000004 0.000001 -903.787078 -516.595238 -455.362647 0.000002 0.000002 -11.106499 -16.549620 -10.972686 -2.177190 0.000001 0.000000 -12.874297 -654.289338 5.068918 0.253164 2.431900 0.469600 -2.489395 9.473588 -3.052363 -11.749793 -0.000005 -0.000003 -18.200199 4.798462 27.985073 2.527957 -0.000005 0.000000 -16.279902 -0.661500 30.241909 -22.466464 -1.987998 -0.073503 -2.712994 -137.647204 -21.172045 -52.263405 -0.000006 -0.000012 -19.547802 -1251.717734 155.592392 552.075885 -0.000005 0.000001 -14.881195 608.599799 94.621732 182.787173
52.042099 -40.923798 44.432304 1789.032105 -5.863460 15.499678 -0.779991 1.005803 5.403096 13.391418 4.466638 -23.194363 0.000001 -0.000002 4.236808 -7.185876 -0.051229 0.177687 -0.000005 -0.000006 9.874401 7.361627 5.956093 1.289131 0.000006 0.000005 2.173900 -0.866540 -0.737133 1.371201 2.681593 -0.377602 5.432502 8.353839 -3.295872 -6.743941 5.161495 -0.000000 0.000004 184.961413 -142.872053 101.780638 0.000005 -0.000011 -10.869105 10.588456 -1.524243 -2.156216 0.000001 -0.000002 -13.344800 -25.928066 -17.403035 17.750060 -2.381905 -1.419605 6.136598 8.798690 -10.247112 14.580504 -4.550501 0.000002 0.000003 -904.672981 -516.130129 -456.470804 0.000001 -0.000006 -11.106498 -17.475338 -11.327346 -2.328602 0.000002 0.000007 -12.874298 -652.353826 5.145572 0.527158 2.431906 0.469596 -2.489404 9.641557 -3.580967 -11.494261 0.000001 -0.000011 -18.200195 4.372417 28.294072 2.528879 -0.000000 -0.000002 -16.279898 -0.715802 30.166084 -22.442788 -1.987996 -0.073504 -2.712998 -135.964737 -21.743344 -50.789205 -0.000009 -0.000002 -19.547802 -1252.210054 155.432552 552.444497 -0.000008 -0.000005 -14.881200 607.917108 94.731684 183.175824
51.991402 -40.934395 44.426708 1789.040301 -5.398031 15.222777 -0.779993 1.005806 5.403097 13.140029 3.944108 -22.344052 0.000008 -0.000003 4.236802 -6.784513 -0.006839 0.174312 0.000000 -0.000003 9.874401 6.814657 6.229686 0.785307 -0.000003 0.000003 2.173897 -0.825348 -0.690892 1.260192 2.681608 -0.377596 5.432508 7.767751 -3.079284 -7.033652 5.161494 -0.000001 -0.000003 186.825591 -140.749654 103.763933 0.000007 -0.000007 -10.869097 13.934958 -2.143609 -1.787317 -0.000002 -0.000003 -13.344818 -29.362812 -18.292947 17.420510 -2.381899 -1.419601 6.136596 8.550363 -10.013933 13.454039 -4.550499 -0.000004 0.000010 -905.680734 -515.632291 -457.783812 0.000004 0.000004 -11.106505 -18.428950 -11.704464 -2.541665 0.000004 -0.000005 -12.874297 -650.237561 5.194548 0.848675 2.431900 0.469608 -2.489390 9.828336 -4.203599 -11.173776 -0.000003 0.000000 -18.200203 3.864563 28.634660 2.520002 -0.000003 -0.000000 -16.279903 -0.546903 30.008426 -22.415790 -1.987993 -0.073498 -2.712994 -133.803051 -22.476218 -49.067297 -0.000014 -0.000009 -19.547806 -1252.851655 155.239586 552.823108 -0.000000 0.000002 -14.881194 606.838703 94.918053 183.773015
51.933601 -40.946095 44.420403 1789.027078 -4.896276 14.885772 -0.779987 1.005803 5.403092 12.890737 3.375808 -21.357366 0.000000 -0.000001 4.236793 -6.340520 0.032179 0.167679 -0.000001 0.000003 9.874401 6.212661 6.548686 0.221347 0.000005 -0.000001 2.173904 -0.779007 -0.635627 1.135896 2.681602 -0.377598 5.432492 7.114433 -2.821660 -7.369540 5.161500 0.000004 -0.000003 189.142869 -138.548038 106.191294 -0.000013 -0.000004 -10.869100 17.569564 -2.806182 -1.300109 0.000007 -0.000002 -13.344807 -33.263687 -19.229563 17.052764 -2.381901 -1.419597 6.136595 8.257501 -9.754644 12.221892 -4.550506 -0.000004 0.000005 -906.773892 -515.137894 -459.212251 0.000001 -0.000002 -11.106504 -19.332514 -12.143307 -2.787100 -0.000001 0.000006 -12.874303 -648.142605 5.411687 1.188831 2.431908 0.469604 -2.489401 10.036251 -4.857537 -10.790862 0.000006 0.000000 -18.200201 3.363472 28.987354 2.529526 -0.000002 -0.000000 -16.279900 -0.366153 29.844232 -22.423928 -1.987989 -0.073499 -2.712993 -131.103774 -23.410135 -47.111527 -0.000003 -0.000010 -19.547806 -1253.657398 155.020077 553.171939 -0.000006 0.000004 -14.881198 605.335241 95.247493 184.588349
51.868198 -40.959297 44.413399 1788.985223 -4.329248 14.468538 -0.779997 1.005799 5.403100 12.645644 2.738026 -20.210383 -0.000000 0.000002 4.236798 -5.858489 0.062640 0.157616 0.000000 -0.000000 9.874398 5.562107 6.915601 -0.399321 0.000002 0.000002 2.173889 -0.728733 -0.570827 0.998074 2.681596 -0.377601 5.432497 6.384672 -2.513407 -7.732988 5.161500 0.000005 -0.000006 191.894178 -136.542093 108.996849 0.000000 -0.000008 -10.869109 21.375538 -3.484552 -0.709677 0.000004 -0.000004 -13.344799 -37.274641 -20.234208 16.667642 -2.381904 -1.419597 6.136591 7.922404 -9.467352 10.894701 -4.550508 -0.000001 0.000004 -908.021194 -514.656885 -460.867178 0.000001 -0.000002 -11.106503 -20.146575 -12.693105 -3.037153 -0.000000 -0.000001 -12.874299 -646.614555 5.360666 1.681940 2.431905 0.469599 -2.489392 10.262381 -5.562217 -10.320827 0.000003 -0.000002 -18.200199 2.853019 29.344832 2.544131 -0.000002 0.000001 -16.279896 -0.166820 29.675157 -22.439840 -1.987993 -0.073500 -2.712992 -127.754413 -24.564034 -44.905574 0.000004 0.000002 -19.547808 -1254.662474 154.776909 553.456458 -0.000000 0.000003 -14.881188 603.651572 95.635462 185.106459
